# xmcd CD database file
#
# Track frame offsets:
#	150
#	14110
#	28120
#	40636
#	54713
#	74189
#	93279
#	111593
#	124845
#	141158
#
# Disc length: 2146 seconds
#
# Revision: 0
# Processed by: cddbd v1.4PL0 Copyright (c) Steve Scherf et al.
# Submitted via: Feurio! 1.64 - http://www.feurio.com
#
DISCID=9908600a
DTITLE=Emmylou Harris - Quarter Moon In A Ten Cent Town-1978
DYEAR=1978
DGENRE=Country
TTITLE0=Easy From Now On
TTITLE1=Two More Bottles Of Wine
TTITLE2=To Daddy
TTITLE3=My Songbird
TTITLE4=Leaving Louisiana In The Broad Daylight
TTITLE5=Defying Gravity
TTITLE6=I Ain't Leaving Long Like This
TTITLE7=One Paper Kid
TTITLE8=Green Rolling Hills
TTITLE9=Burn That Candle
EXTD=CD - VÖ-Datum: 23.5.89\r\nCountry\r\nBestellnr. 2943976\r\nWEA, AAD, 
EXTD=78\r\nKritik: \r\nF. Schöler in Stereo 1/89:"...eine der zwei oder drei 
EXTD=besten Platten \r\nder Sängerin, klingt auf CD mindestens so überzeugend 
EXTD=gut wie \r\nvorher auf der Half Speed-Überspielung von MFSL." \r\nROLLING 
EXTD=STONE ALBUM GUIDE ***
EXTT0=
EXTT1=
EXTT2=
EXTT3=
EXTT4=
EXTT5=
EXTT6=
EXTT7=
EXTT8=
EXTT9=
PLAYORDER=
